<?xml version="1.0" encoding="UTF-8"?>
<svg id="Layer_1" xmlns="http://www.w3.org/2000/svg" version="1.1" viewBox="0 0 20 18">
  <!-- Generator: Adobe Illustrator 30.5.1, SVG Export Plug-In . SVG Version: 2.1.4 Build 3)  -->
  <defs>
    <style>
      .st0 {
        fill: #fff;
      }
    </style>
  </defs>
  <path class="st0" d="M18.35,8.84l-.02-.17c-.15-1.65-1.24-4.77-4.25-4.77-2.24,0-3.93,2.19-5.42,4.12-1.19,1.54-2.22,2.87-3.36,2.87-.3-.03-.69-.18-.93-.52-.21-.31-.27-.7-.16-1.17.17-.74,1.17-1.43,2.23-2.17.58-.39,1.17-.81,1.59-1.21,1.19-1.14,1.79-1.96,1.79-3.28s-.74-1.98-1.36-2.27c-1.24-.56-3.05-.24-4.21.75-.17.16-.35.31-.51.45-1.17,1.03-1.95,1.72-3.75,1.19v2.15c2.39,1.04,4.4-.95,5.16-1.87.59-.6,1.21-.96,1.67-.96h.02c.21,0,.38.09.51.23.21.24.29.51.25.82-.09.64-.76,1.4-2,2.22-1.45.96-3.88,2.58-4.07,4.61-.14,1.46.62,2.92,1.81,3.48,2.78,1.3,4.47-.94,6.26-3.31,1.37-1.83,2.67-3.56,4.48-3.56,1.63,0,2.23,1.33,2.23,2.17v.16l-.16.03c-3.94.69-6.09,4.34-6.09,6.03s1.44,3.13,3.22,3.13c2.08,0,4.65-1.76,5.06-6.69l.02-.18h1.64v-2.28h-1.65ZM16.2,11.38c-.32,2.96-1.85,4.34-2.78,4.34-.42,0-1.01-.34-1.01-.99,0-.72,1.09-2.91,3.53-3.56l.29-.07-.03.28h0Z"/>
</svg>